%TF.GenerationSoftware,KiCad,Pcbnew,7.0.9*%
%TF.CreationDate,2023-12-04T17:55:50-06:00*%
%TF.ProjectId,sbc6120-rbc-front-dress-panel,73626336-3132-4302-9d72-62632d66726f,rev?*%
%TF.SameCoordinates,Original*%
%TF.FileFunction,Legend,Bot*%
%TF.FilePolarity,Positive*%
%FSLAX46Y46*%
G04 Gerber Fmt 4.6, Leading zero omitted, Abs format (unit mm)*
G04 Created by KiCad (PCBNEW 7.0.9) date 2023-12-04 17:55:50*
%MOMM*%
%LPD*%
G01*
G04 APERTURE LIST*
%ADD10C,0.150000*%
G04 APERTURE END LIST*
D10*
X248297506Y-151269819D02*
X248297506Y-151984104D01*
X248297506Y-151984104D02*
X248345125Y-152126961D01*
X248345125Y-152126961D02*
X248440363Y-152222200D01*
X248440363Y-152222200D02*
X248583220Y-152269819D01*
X248583220Y-152269819D02*
X248678458Y-152269819D01*
X247345125Y-152269819D02*
X247821315Y-152269819D01*
X247821315Y-152269819D02*
X247821315Y-151269819D01*
X246440363Y-152174580D02*
X246487982Y-152222200D01*
X246487982Y-152222200D02*
X246630839Y-152269819D01*
X246630839Y-152269819D02*
X246726077Y-152269819D01*
X246726077Y-152269819D02*
X246868934Y-152222200D01*
X246868934Y-152222200D02*
X246964172Y-152126961D01*
X246964172Y-152126961D02*
X247011791Y-152031723D01*
X247011791Y-152031723D02*
X247059410Y-151841247D01*
X247059410Y-151841247D02*
X247059410Y-151698390D01*
X247059410Y-151698390D02*
X247011791Y-151507914D01*
X247011791Y-151507914D02*
X246964172Y-151412676D01*
X246964172Y-151412676D02*
X246868934Y-151317438D01*
X246868934Y-151317438D02*
X246726077Y-151269819D01*
X246726077Y-151269819D02*
X246630839Y-151269819D01*
X246630839Y-151269819D02*
X246487982Y-151317438D01*
X246487982Y-151317438D02*
X246440363Y-151365057D01*
X245726077Y-151269819D02*
X245726077Y-151984104D01*
X245726077Y-151984104D02*
X245773696Y-152126961D01*
X245773696Y-152126961D02*
X245868934Y-152222200D01*
X245868934Y-152222200D02*
X246011791Y-152269819D01*
X246011791Y-152269819D02*
X246107029Y-152269819D01*
X244773696Y-152269819D02*
X245249886Y-152269819D01*
X245249886Y-152269819D02*
X245249886Y-151269819D01*
X243868934Y-152174580D02*
X243916553Y-152222200D01*
X243916553Y-152222200D02*
X244059410Y-152269819D01*
X244059410Y-152269819D02*
X244154648Y-152269819D01*
X244154648Y-152269819D02*
X244297505Y-152222200D01*
X244297505Y-152222200D02*
X244392743Y-152126961D01*
X244392743Y-152126961D02*
X244440362Y-152031723D01*
X244440362Y-152031723D02*
X244487981Y-151841247D01*
X244487981Y-151841247D02*
X244487981Y-151698390D01*
X244487981Y-151698390D02*
X244440362Y-151507914D01*
X244440362Y-151507914D02*
X244392743Y-151412676D01*
X244392743Y-151412676D02*
X244297505Y-151317438D01*
X244297505Y-151317438D02*
X244154648Y-151269819D01*
X244154648Y-151269819D02*
X244059410Y-151269819D01*
X244059410Y-151269819D02*
X243916553Y-151317438D01*
X243916553Y-151317438D02*
X243868934Y-151365057D01*
X243154648Y-151269819D02*
X243154648Y-151984104D01*
X243154648Y-151984104D02*
X243202267Y-152126961D01*
X243202267Y-152126961D02*
X243297505Y-152222200D01*
X243297505Y-152222200D02*
X243440362Y-152269819D01*
X243440362Y-152269819D02*
X243535600Y-152269819D01*
X242202267Y-152269819D02*
X242678457Y-152269819D01*
X242678457Y-152269819D02*
X242678457Y-151269819D01*
X241297505Y-152174580D02*
X241345124Y-152222200D01*
X241345124Y-152222200D02*
X241487981Y-152269819D01*
X241487981Y-152269819D02*
X241583219Y-152269819D01*
X241583219Y-152269819D02*
X241726076Y-152222200D01*
X241726076Y-152222200D02*
X241821314Y-152126961D01*
X241821314Y-152126961D02*
X241868933Y-152031723D01*
X241868933Y-152031723D02*
X241916552Y-151841247D01*
X241916552Y-151841247D02*
X241916552Y-151698390D01*
X241916552Y-151698390D02*
X241868933Y-151507914D01*
X241868933Y-151507914D02*
X241821314Y-151412676D01*
X241821314Y-151412676D02*
X241726076Y-151317438D01*
X241726076Y-151317438D02*
X241583219Y-151269819D01*
X241583219Y-151269819D02*
X241487981Y-151269819D01*
X241487981Y-151269819D02*
X241345124Y-151317438D01*
X241345124Y-151317438D02*
X241297505Y-151365057D01*
X240583219Y-151269819D02*
X240583219Y-151984104D01*
X240583219Y-151984104D02*
X240630838Y-152126961D01*
X240630838Y-152126961D02*
X240726076Y-152222200D01*
X240726076Y-152222200D02*
X240868933Y-152269819D01*
X240868933Y-152269819D02*
X240964171Y-152269819D01*
X239630838Y-152269819D02*
X240107028Y-152269819D01*
X240107028Y-152269819D02*
X240107028Y-151269819D01*
X238726076Y-152174580D02*
X238773695Y-152222200D01*
X238773695Y-152222200D02*
X238916552Y-152269819D01*
X238916552Y-152269819D02*
X239011790Y-152269819D01*
X239011790Y-152269819D02*
X239154647Y-152222200D01*
X239154647Y-152222200D02*
X239249885Y-152126961D01*
X239249885Y-152126961D02*
X239297504Y-152031723D01*
X239297504Y-152031723D02*
X239345123Y-151841247D01*
X239345123Y-151841247D02*
X239345123Y-151698390D01*
X239345123Y-151698390D02*
X239297504Y-151507914D01*
X239297504Y-151507914D02*
X239249885Y-151412676D01*
X239249885Y-151412676D02*
X239154647Y-151317438D01*
X239154647Y-151317438D02*
X239011790Y-151269819D01*
X239011790Y-151269819D02*
X238916552Y-151269819D01*
X238916552Y-151269819D02*
X238773695Y-151317438D01*
X238773695Y-151317438D02*
X238726076Y-151365057D01*
M02*
