%TF.GenerationSoftware,KiCad,Pcbnew,7.0.9*%
%TF.CreationDate,2023-12-04T17:55:51-06:00*%
%TF.ProjectId,sbc6120-rbc-front-dress-panel,73626336-3132-4302-9d72-62632d66726f,rev?*%
%TF.SameCoordinates,Original*%
%TF.FileFunction,Profile,NP*%
%FSLAX46Y46*%
G04 Gerber Fmt 4.6, Leading zero omitted, Abs format (unit mm)*
G04 Created by KiCad (PCBNEW 7.0.9) date 2023-12-04 17:55:51*
%MOMM*%
%LPD*%
G01*
G04 APERTURE LIST*
%TA.AperFunction,Profile*%
%ADD10C,0.100000*%
%TD*%
G04 APERTURE END LIST*
D10*
X59465000Y-143700000D02*
G75*
G03*
X59465000Y-143700000I-2950000J0D01*
G01*
X156885000Y-64810000D02*
G75*
G03*
X156885000Y-64810000I-2500000J0D01*
G01*
X130215000Y-52665000D02*
G75*
G03*
X130215000Y-52665000I-2500000J0D01*
G01*
X226040000Y-79375000D02*
G75*
G03*
X226040000Y-79375000I-3750000J0D01*
G01*
X112435000Y-52665000D02*
G75*
G03*
X112435000Y-52665000I-2500000J0D01*
G01*
X174665000Y-52665000D02*
G75*
G03*
X174665000Y-52665000I-2500000J0D01*
G01*
X183925000Y-143700000D02*
G75*
G03*
X183925000Y-143700000I-2950000J0D01*
G01*
X72800000Y-143700000D02*
G75*
G03*
X72800000Y-143700000I-2950000J0D01*
G01*
X215040000Y-143700000D02*
G75*
G03*
X215040000Y-143700000I-2950000J0D01*
G01*
X148365000Y-143700000D02*
G75*
G03*
X148365000Y-143700000I-2950000J0D01*
G01*
X121325000Y-52665000D02*
G75*
G03*
X121325000Y-52665000I-2500000J0D01*
G01*
X232820000Y-143700000D02*
G75*
G03*
X232820000Y-143700000I-2950000J0D01*
G01*
X121325000Y-64730000D02*
G75*
G03*
X121325000Y-64730000I-2500000J0D01*
G01*
X147995000Y-64810000D02*
G75*
G03*
X147995000Y-64810000I-2500000J0D01*
G01*
X157255000Y-143700000D02*
G75*
G03*
X157255000Y-143700000I-2950000J0D01*
G01*
X85725000Y-52705000D02*
G75*
G03*
X85725000Y-52705000I-2500000J0D01*
G01*
X130585000Y-143700000D02*
G75*
G03*
X130585000Y-143700000I-2950000J0D01*
G01*
X139105000Y-52745000D02*
G75*
G03*
X139105000Y-52745000I-2500000J0D01*
G01*
X103545000Y-52665000D02*
G75*
G03*
X103545000Y-52665000I-2500000J0D01*
G01*
X139105000Y-64810000D02*
G75*
G03*
X139105000Y-64810000I-2500000J0D01*
G01*
X223930000Y-143700000D02*
G75*
G03*
X223930000Y-143700000I-2950000J0D01*
G01*
X192815000Y-143700000D02*
G75*
G03*
X192815000Y-143700000I-2950000J0D01*
G01*
X130215000Y-64810000D02*
G75*
G03*
X130215000Y-64810000I-2500000J0D01*
G01*
X76835000Y-52705000D02*
G75*
G03*
X76835000Y-52705000I-2500000J0D01*
G01*
X192405000Y-52705000D02*
G75*
G03*
X192405000Y-52705000I-2500000J0D01*
G01*
X166145000Y-143700000D02*
G75*
G03*
X166145000Y-143700000I-2950000J0D01*
G01*
X183515000Y-64770000D02*
G75*
G03*
X183515000Y-64770000I-2500000J0D01*
G01*
X174665000Y-64770000D02*
G75*
G03*
X174665000Y-64770000I-2500000J0D01*
G01*
X112805000Y-143700000D02*
G75*
G03*
X112805000Y-143700000I-2950000J0D01*
G01*
X103915000Y-143700000D02*
G75*
G03*
X103915000Y-143700000I-2950000J0D01*
G01*
X165775000Y-52705000D02*
G75*
G03*
X165775000Y-52705000I-2500000J0D01*
G01*
X112435000Y-64730000D02*
G75*
G03*
X112435000Y-64730000I-2500000J0D01*
G01*
X175035000Y-143700000D02*
G75*
G03*
X175035000Y-143700000I-2950000J0D01*
G01*
X206150000Y-143700000D02*
G75*
G03*
X206150000Y-143700000I-2950000J0D01*
G01*
X147995000Y-52745000D02*
G75*
G03*
X147995000Y-52745000I-2500000J0D01*
G01*
X246155000Y-143700000D02*
G75*
G03*
X246155000Y-143700000I-2950000J0D01*
G01*
X240705000Y-52665000D02*
G75*
G03*
X240705000Y-52665000I-2500000J0D01*
G01*
X139475000Y-143700000D02*
G75*
G03*
X139475000Y-143700000I-2950000J0D01*
G01*
X103545000Y-64730000D02*
G75*
G03*
X103545000Y-64730000I-2500000J0D01*
G01*
X156885000Y-52745000D02*
G75*
G03*
X156885000Y-52745000I-2500000J0D01*
G01*
X46355000Y-26670000D02*
X253365000Y-26670000D01*
X253365000Y-154305000D01*
X46355000Y-154305000D01*
X46355000Y-26670000D01*
X183555000Y-52665000D02*
G75*
G03*
X183555000Y-52665000I-2500000J0D01*
G01*
X121695000Y-143700000D02*
G75*
G03*
X121695000Y-143700000I-2950000J0D01*
G01*
X94615000Y-52705000D02*
G75*
G03*
X94615000Y-52705000I-2500000J0D01*
G01*
X81690000Y-143700000D02*
G75*
G03*
X81690000Y-143700000I-2950000J0D01*
G01*
X165775000Y-64770000D02*
G75*
G03*
X165775000Y-64770000I-2500000J0D01*
G01*
X94615000Y-64730000D02*
G75*
G03*
X94615000Y-64730000I-2500000J0D01*
G01*
X192405000Y-64770000D02*
G75*
G03*
X192405000Y-64770000I-2500000J0D01*
G01*
X95025000Y-143700000D02*
G75*
G03*
X95025000Y-143700000I-2950000J0D01*
G01*
X67945000Y-52705000D02*
G75*
G03*
X67945000Y-52705000I-2500000J0D01*
G01*
M02*
