%TF.GenerationSoftware,KiCad,Pcbnew,7.0.9*%
%TF.CreationDate,2023-12-04T17:05:14-06:00*%
%TF.ProjectId,sbc6120-rbc-front-panel,73626336-3132-4302-9d72-62632d66726f,1.0*%
%TF.SameCoordinates,Original*%
%TF.FileFunction,Soldermask,Top*%
%TF.FilePolarity,Negative*%
%FSLAX46Y46*%
G04 Gerber Fmt 4.6, Leading zero omitted, Abs format (unit mm)*
G04 Created by KiCad (PCBNEW 7.0.9) date 2023-12-04 17:05:14*
%MOMM*%
%LPD*%
G01*
G04 APERTURE LIST*
%ADD10R,1.600000X1.600000*%
%ADD11O,1.600000X1.600000*%
%ADD12C,3.200000*%
%ADD13R,1.800000X1.800000*%
%ADD14C,1.800000*%
%ADD15O,3.600000X2.200000*%
%ADD16C,1.600000*%
%ADD17R,1.700000X1.700000*%
%ADD18O,1.700000X1.700000*%
%ADD19C,1.612000*%
G04 APERTURE END LIST*
D10*
%TO.C,U9*%
X74930000Y-93980000D03*
D11*
X74930000Y-96520000D03*
X74930000Y-99060000D03*
X74930000Y-101600000D03*
X74930000Y-104140000D03*
X74930000Y-106680000D03*
X74930000Y-109220000D03*
X74930000Y-111760000D03*
X82550000Y-111760000D03*
X82550000Y-109220000D03*
X82550000Y-106680000D03*
X82550000Y-104140000D03*
X82550000Y-101600000D03*
X82550000Y-99060000D03*
X82550000Y-96520000D03*
X82550000Y-93980000D03*
%TD*%
D12*
%TO.C,H12*%
X159385000Y-28575000D03*
%TD*%
D13*
%TO.C,D16*%
X93345000Y-60325000D03*
D14*
X90805000Y-60325000D03*
%TD*%
D13*
%TO.C,D7*%
X120015000Y-48260000D03*
D14*
X117475000Y-48260000D03*
%TD*%
D15*
%TO.C,SW10*%
X172085000Y-143955000D03*
X172085000Y-139255000D03*
X172085000Y-134555000D03*
%TD*%
D13*
%TO.C,D14*%
X182245000Y-48260000D03*
D14*
X179705000Y-48260000D03*
%TD*%
D16*
%TO.C,C4*%
X55880000Y-69890000D03*
X55880000Y-74890000D03*
%TD*%
D12*
%TO.C,H9*%
X53975000Y-124460000D03*
%TD*%
D13*
%TO.C,D4*%
X93345000Y-48260000D03*
D14*
X90805000Y-48260000D03*
%TD*%
D10*
%TO.C,RN8*%
X215265000Y-122555000D03*
D11*
X217805000Y-122555000D03*
X220345000Y-122555000D03*
X222885000Y-122555000D03*
X225425000Y-122555000D03*
X227965000Y-122555000D03*
X230505000Y-122555000D03*
%TD*%
D16*
%TO.C,C3*%
X87884000Y-69890000D03*
X87884000Y-74890000D03*
%TD*%
%TO.C,C2*%
X132588000Y-69810000D03*
X132588000Y-74810000D03*
%TD*%
D10*
%TO.C,U3*%
X91440000Y-77470000D03*
D11*
X93980000Y-77470000D03*
X96520000Y-77470000D03*
X99060000Y-77470000D03*
X101600000Y-77470000D03*
X104140000Y-77470000D03*
X106680000Y-77470000D03*
X109220000Y-77470000D03*
X109220000Y-69850000D03*
X106680000Y-69850000D03*
X104140000Y-69850000D03*
X101600000Y-69850000D03*
X99060000Y-69850000D03*
X96520000Y-69850000D03*
X93980000Y-69850000D03*
X91440000Y-69850000D03*
%TD*%
D16*
%TO.C,C10*%
X228560000Y-83820000D03*
X223560000Y-83820000D03*
%TD*%
D15*
%TO.C,SW17*%
X212090000Y-134555000D03*
X212090000Y-139255000D03*
X212090000Y-143955000D03*
%TD*%
D13*
%TO.C,D23*%
X155575000Y-60325000D03*
D14*
X153035000Y-60325000D03*
%TD*%
D10*
%TO.C,RN4*%
X151130000Y-54610000D03*
D11*
X153670000Y-54610000D03*
X156210000Y-54610000D03*
X158750000Y-54610000D03*
X161290000Y-54610000D03*
X163830000Y-54610000D03*
X166370000Y-54610000D03*
X168910000Y-54610000D03*
X171450000Y-54610000D03*
%TD*%
D10*
%TO.C,U12*%
X220980000Y-87630000D03*
D11*
X220980000Y-90170000D03*
X220980000Y-92710000D03*
X220980000Y-95250000D03*
X220980000Y-97790000D03*
X220980000Y-100330000D03*
X220980000Y-102870000D03*
X228600000Y-102870000D03*
X228600000Y-100330000D03*
X228600000Y-97790000D03*
X228600000Y-95250000D03*
X228600000Y-92710000D03*
X228600000Y-90170000D03*
X228600000Y-87630000D03*
%TD*%
D15*
%TO.C,SW2*%
X100965000Y-143955000D03*
X100965000Y-139255000D03*
X100965000Y-134555000D03*
%TD*%
%TO.C,SW12*%
X189865000Y-143955000D03*
X189865000Y-139255000D03*
X189865000Y-134555000D03*
%TD*%
%TO.C,SW11*%
X180975000Y-143955000D03*
X180975000Y-139255000D03*
X180975000Y-134555000D03*
%TD*%
D10*
%TO.C,U11*%
X232410000Y-83820000D03*
D11*
X232410000Y-86360000D03*
X232410000Y-88900000D03*
X232410000Y-91440000D03*
X232410000Y-93980000D03*
X232410000Y-96520000D03*
X232410000Y-99060000D03*
X240030000Y-99060000D03*
X240030000Y-96520000D03*
X240030000Y-93980000D03*
X240030000Y-91440000D03*
X240030000Y-88900000D03*
X240030000Y-86360000D03*
X240030000Y-83820000D03*
%TD*%
D10*
%TO.C,U10*%
X198755000Y-61595000D03*
D11*
X201295000Y-61595000D03*
X203835000Y-61595000D03*
X206375000Y-61595000D03*
X208915000Y-61595000D03*
X211455000Y-61595000D03*
X213995000Y-61595000D03*
X216535000Y-61595000D03*
X216535000Y-53975000D03*
X213995000Y-53975000D03*
X211455000Y-53975000D03*
X208915000Y-53975000D03*
X206375000Y-53975000D03*
X203835000Y-53975000D03*
X201295000Y-53975000D03*
X198755000Y-53975000D03*
%TD*%
D15*
%TO.C,SW5*%
X127635000Y-143955000D03*
X127635000Y-139255000D03*
X127635000Y-134555000D03*
%TD*%
D12*
%TO.C,H5*%
X191770000Y-129540000D03*
%TD*%
D13*
%TO.C,D10*%
X146685000Y-48260000D03*
D14*
X144145000Y-48260000D03*
%TD*%
D10*
%TO.C,RN2*%
X146050000Y-40640000D03*
D11*
X148590000Y-40640000D03*
X151130000Y-40640000D03*
X153670000Y-40640000D03*
X156210000Y-40640000D03*
X158750000Y-40640000D03*
X161290000Y-40640000D03*
X163830000Y-40640000D03*
X166370000Y-40640000D03*
%TD*%
D15*
%TO.C,SW20*%
X229870000Y-143955000D03*
X229870000Y-139255000D03*
X229870000Y-134555000D03*
%TD*%
D12*
%TO.C,H10*%
X172720000Y-88265000D03*
%TD*%
D13*
%TO.C,D18*%
X111125000Y-60325000D03*
D14*
X108585000Y-60325000D03*
%TD*%
D13*
%TO.C,D5*%
X102235000Y-48260000D03*
D14*
X99695000Y-48260000D03*
%TD*%
D13*
%TO.C,D21*%
X137795000Y-60325000D03*
D14*
X135255000Y-60325000D03*
%TD*%
D13*
%TO.C,D22*%
X146685000Y-60325000D03*
D14*
X144145000Y-60325000D03*
%TD*%
D13*
%TO.C,D9*%
X137795000Y-48260000D03*
D14*
X135255000Y-48260000D03*
%TD*%
D15*
%TO.C,SW6*%
X136525000Y-143955000D03*
X136525000Y-139255000D03*
X136525000Y-134555000D03*
%TD*%
D16*
%TO.C,C5*%
X158115000Y-71120000D03*
X158115000Y-76120000D03*
%TD*%
D10*
%TO.C,C16*%
X190175000Y-73025000D03*
D16*
X193675000Y-73025000D03*
%TD*%
D15*
%TO.C,SW8*%
X154305000Y-143955000D03*
X154305000Y-139255000D03*
X154305000Y-134555000D03*
%TD*%
D10*
%TO.C,U4*%
X136525000Y-77470000D03*
D11*
X139065000Y-77470000D03*
X141605000Y-77470000D03*
X144145000Y-77470000D03*
X146685000Y-77470000D03*
X149225000Y-77470000D03*
X151765000Y-77470000D03*
X154305000Y-77470000D03*
X154305000Y-69850000D03*
X151765000Y-69850000D03*
X149225000Y-69850000D03*
X146685000Y-69850000D03*
X144145000Y-69850000D03*
X141605000Y-69850000D03*
X139065000Y-69850000D03*
X136525000Y-69850000D03*
%TD*%
D12*
%TO.C,H6*%
X245745000Y-33655000D03*
%TD*%
D16*
%TO.C,C7*%
X198628000Y-51014000D03*
X198628000Y-46014000D03*
%TD*%
D13*
%TO.C,D6*%
X111125000Y-48260000D03*
D14*
X108585000Y-48260000D03*
%TD*%
D10*
%TO.C,U2*%
X161925000Y-77470000D03*
D11*
X164465000Y-77470000D03*
X167005000Y-77470000D03*
X169545000Y-77470000D03*
X172085000Y-77470000D03*
X174625000Y-77470000D03*
X177165000Y-77470000D03*
X179705000Y-77470000D03*
X182245000Y-77470000D03*
X184785000Y-77470000D03*
X184785000Y-69850000D03*
X182245000Y-69850000D03*
X179705000Y-69850000D03*
X177165000Y-69850000D03*
X174625000Y-69850000D03*
X172085000Y-69850000D03*
X169545000Y-69850000D03*
X167005000Y-69850000D03*
X164465000Y-69850000D03*
X161925000Y-69850000D03*
%TD*%
D15*
%TO.C,SW13*%
X56515000Y-134555000D03*
X56515000Y-139255000D03*
X56515000Y-143955000D03*
%TD*%
D16*
%TO.C,R2*%
X247015000Y-62230000D03*
D11*
X247015000Y-69850000D03*
%TD*%
D13*
%TO.C,D8*%
X128905000Y-48260000D03*
D14*
X126365000Y-48260000D03*
%TD*%
D12*
%TO.C,H4*%
X100330000Y-129540000D03*
%TD*%
D15*
%TO.C,SW9*%
X163195000Y-143955000D03*
X163195000Y-139255000D03*
X163195000Y-134555000D03*
%TD*%
D16*
%TO.C,C13*%
X136652000Y-99695000D03*
X136652000Y-94695000D03*
%TD*%
D10*
%TO.C,U6*%
X136515000Y-110490000D03*
D11*
X139055000Y-110490000D03*
X141595000Y-110490000D03*
X144135000Y-110490000D03*
X146675000Y-110490000D03*
X149215000Y-110490000D03*
X151755000Y-110490000D03*
X154295000Y-110490000D03*
X154295000Y-102870000D03*
X151755000Y-102870000D03*
X149215000Y-102870000D03*
X146675000Y-102870000D03*
X144135000Y-102870000D03*
X141595000Y-102870000D03*
X139055000Y-102870000D03*
X136515000Y-102870000D03*
%TD*%
D12*
%TO.C,H7*%
X245745000Y-124460000D03*
%TD*%
D13*
%TO.C,D2*%
X75565000Y-48260000D03*
D14*
X73025000Y-48260000D03*
%TD*%
D17*
%TO.C,SW23*%
X246380000Y-76835000D03*
D18*
X246380000Y-79375000D03*
X246380000Y-81915000D03*
%TD*%
D13*
%TO.C,D17*%
X102235000Y-60325000D03*
D14*
X99695000Y-60325000D03*
%TD*%
D12*
%TO.C,H8*%
X53975000Y-33655000D03*
%TD*%
D10*
%TO.C,U8*%
X234315000Y-58674000D03*
D11*
X234315000Y-61214000D03*
X234315000Y-63754000D03*
X234315000Y-66294000D03*
X241935000Y-66294000D03*
X241935000Y-63754000D03*
X241935000Y-61214000D03*
X241935000Y-58674000D03*
%TD*%
D16*
%TO.C,C1*%
X234950000Y-69509000D03*
X234950000Y-74509000D03*
%TD*%
D10*
%TO.C,RN7*%
X67945000Y-122555000D03*
D11*
X70485000Y-122555000D03*
X73025000Y-122555000D03*
X75565000Y-122555000D03*
X78105000Y-122555000D03*
%TD*%
D10*
%TO.C,RN9*%
X229235000Y-62230000D03*
D11*
X229235000Y-64770000D03*
X229235000Y-67310000D03*
X229235000Y-69850000D03*
X229235000Y-72390000D03*
X229235000Y-74930000D03*
%TD*%
D19*
%TO.C,SW21*%
X224596654Y-73957984D03*
X224596587Y-75901988D03*
X223221988Y-72583413D03*
X221278012Y-77276587D03*
X219903346Y-75902016D03*
X219903413Y-73958012D03*
X221277984Y-72583346D03*
X223222016Y-77276654D03*
%TD*%
D16*
%TO.C,C15*%
X82510000Y-90170000D03*
X77510000Y-90170000D03*
%TD*%
D15*
%TO.C,SW1*%
X92075000Y-143955000D03*
X92075000Y-139255000D03*
X92075000Y-134555000D03*
%TD*%
%TO.C,SW18*%
X220980000Y-134555000D03*
X220980000Y-139255000D03*
X220980000Y-143955000D03*
%TD*%
D16*
%TO.C,C9*%
X240030000Y-80010000D03*
X235030000Y-80010000D03*
%TD*%
D13*
%TO.C,D19*%
X120015000Y-60325000D03*
D14*
X117475000Y-60325000D03*
%TD*%
D13*
%TO.C,D1*%
X66675000Y-48260000D03*
D14*
X64135000Y-48260000D03*
%TD*%
D15*
%TO.C,SW3*%
X109855000Y-143955000D03*
X109855000Y-139255000D03*
X109855000Y-134555000D03*
%TD*%
D13*
%TO.C,D20*%
X128905000Y-60325000D03*
D14*
X126365000Y-60325000D03*
%TD*%
D13*
%TO.C,D25*%
X173355000Y-60325000D03*
D14*
X170815000Y-60325000D03*
%TD*%
D16*
%TO.C,R4*%
X212725000Y-86360000D03*
D11*
X212725000Y-93980000D03*
%TD*%
D10*
%TO.C,RN6*%
X139065000Y-122555000D03*
D11*
X141605000Y-122555000D03*
X144145000Y-122555000D03*
X146685000Y-122555000D03*
X149225000Y-122555000D03*
X151765000Y-122555000D03*
X154305000Y-122555000D03*
%TD*%
D10*
%TO.C,U1*%
X59690000Y-77470000D03*
D11*
X62230000Y-77470000D03*
X64770000Y-77470000D03*
X67310000Y-77470000D03*
X69850000Y-77470000D03*
X72390000Y-77470000D03*
X74930000Y-77470000D03*
X77470000Y-77470000D03*
X80010000Y-77470000D03*
X82550000Y-77470000D03*
X82550000Y-69850000D03*
X80010000Y-69850000D03*
X77470000Y-69850000D03*
X74930000Y-69850000D03*
X72390000Y-69850000D03*
X69850000Y-69850000D03*
X67310000Y-69850000D03*
X64770000Y-69850000D03*
X62230000Y-69850000D03*
X59690000Y-69850000D03*
%TD*%
D16*
%TO.C,C14*%
X104775000Y-90170000D03*
X109775000Y-90170000D03*
%TD*%
D13*
%TO.C,D15*%
X191135000Y-48260000D03*
D14*
X188595000Y-48260000D03*
%TD*%
D10*
%TO.C,U13*%
X182245000Y-88900000D03*
D11*
X182245000Y-91440000D03*
X182245000Y-93980000D03*
X182245000Y-96520000D03*
X182245000Y-99060000D03*
X182245000Y-101600000D03*
X182245000Y-104140000D03*
X182245000Y-106680000D03*
X182245000Y-109220000D03*
X182245000Y-111760000D03*
X189865000Y-111760000D03*
X189865000Y-109220000D03*
X189865000Y-106680000D03*
X189865000Y-104140000D03*
X189865000Y-101600000D03*
X189865000Y-99060000D03*
X189865000Y-96520000D03*
X189865000Y-93980000D03*
X189865000Y-91440000D03*
X189865000Y-88900000D03*
%TD*%
D15*
%TO.C,SW4*%
X118745000Y-143955000D03*
X118745000Y-139255000D03*
X118745000Y-134555000D03*
%TD*%
D16*
%TO.C,C11*%
X212598000Y-81915000D03*
X212598000Y-76915000D03*
%TD*%
D15*
%TO.C,SW19*%
X243205000Y-143955000D03*
X243205000Y-139255000D03*
X243205000Y-134555000D03*
%TD*%
D16*
%TO.C,C12*%
X189952000Y-85090000D03*
X184952000Y-85090000D03*
%TD*%
%TO.C,C6*%
X244054000Y-70358000D03*
X239054000Y-70358000D03*
%TD*%
D17*
%TO.C,SW22*%
X246380000Y-92075000D03*
D18*
X246380000Y-94615000D03*
X246380000Y-97155000D03*
%TD*%
D12*
%TO.C,H1*%
X55880000Y-27940000D03*
%TD*%
D13*
%TO.C,D13*%
X173355000Y-48260000D03*
D14*
X170815000Y-48260000D03*
%TD*%
D15*
%TO.C,SW15*%
X78740000Y-134555000D03*
X78740000Y-139255000D03*
X78740000Y-143955000D03*
%TD*%
D12*
%TO.C,H11*%
X116205000Y-75565000D03*
%TD*%
D13*
%TO.C,D12*%
X164465000Y-48260000D03*
D14*
X161925000Y-48260000D03*
%TD*%
D10*
%TO.C,RN5*%
X94615000Y-122555000D03*
D11*
X97155000Y-122555000D03*
X99695000Y-122555000D03*
X102235000Y-122555000D03*
X104775000Y-122555000D03*
X107315000Y-122555000D03*
X109855000Y-122555000D03*
%TD*%
D17*
%TO.C,SW24*%
X246380000Y-107315000D03*
D18*
X246380000Y-109855000D03*
X246380000Y-112395000D03*
%TD*%
D10*
%TO.C,RN1*%
X83820000Y-40640000D03*
D11*
X86360000Y-40640000D03*
X88900000Y-40640000D03*
X91440000Y-40640000D03*
X93980000Y-40640000D03*
X96520000Y-40640000D03*
X99060000Y-40640000D03*
X101600000Y-40640000D03*
X104140000Y-40640000D03*
%TD*%
D12*
%TO.C,H3*%
X187960000Y-27940000D03*
%TD*%
D13*
%TO.C,D24*%
X164465000Y-60325000D03*
D14*
X161925000Y-60325000D03*
%TD*%
D13*
%TO.C,D28*%
X236855000Y-48260000D03*
D14*
X239395000Y-48260000D03*
%TD*%
D13*
%TO.C,D26*%
X182245000Y-60325000D03*
D14*
X179705000Y-60325000D03*
%TD*%
D16*
%TO.C,C8*%
X241768000Y-54864000D03*
X236768000Y-54864000D03*
%TD*%
%TO.C,R1*%
X247015000Y-52070000D03*
D11*
X247015000Y-59690000D03*
%TD*%
D10*
%TO.C,U5*%
X97155000Y-93970000D03*
D11*
X97155000Y-96510000D03*
X97155000Y-99050000D03*
X97155000Y-101590000D03*
X97155000Y-104130000D03*
X97155000Y-106670000D03*
X97155000Y-109210000D03*
X97155000Y-111750000D03*
X104775000Y-111750000D03*
X104775000Y-109210000D03*
X104775000Y-106670000D03*
X104775000Y-104130000D03*
X104775000Y-101590000D03*
X104775000Y-99050000D03*
X104775000Y-96510000D03*
X104775000Y-93970000D03*
%TD*%
D15*
%TO.C,SW14*%
X69850000Y-134555000D03*
X69850000Y-139255000D03*
X69850000Y-143955000D03*
%TD*%
D17*
%TO.C,J1*%
X121915000Y-66035000D03*
D18*
X124455000Y-66035000D03*
X121915000Y-68575000D03*
X124455000Y-68575000D03*
X121915000Y-71115000D03*
X124455000Y-71115000D03*
X121915000Y-73655000D03*
X124455000Y-73655000D03*
X121915000Y-76195000D03*
X124455000Y-76195000D03*
X121915000Y-78735000D03*
X124455000Y-78735000D03*
X121915000Y-81275000D03*
X124455000Y-81275000D03*
X121915000Y-83815000D03*
X124455000Y-83815000D03*
X121915000Y-86355000D03*
X124455000Y-86355000D03*
X121915000Y-88895000D03*
X124455000Y-88895000D03*
X121915000Y-91435000D03*
X124455000Y-91435000D03*
X121915000Y-93975000D03*
X124455000Y-93975000D03*
X121915000Y-96515000D03*
X124455000Y-96515000D03*
X121915000Y-99055000D03*
X124455000Y-99055000D03*
X121915000Y-101595000D03*
X124455000Y-101595000D03*
X121915000Y-104135000D03*
X124455000Y-104135000D03*
X121915000Y-106675000D03*
X124455000Y-106675000D03*
X121915000Y-109215000D03*
X124455000Y-109215000D03*
X121915000Y-111755000D03*
X124455000Y-111755000D03*
X121915000Y-114295000D03*
X124455000Y-114295000D03*
X121915000Y-116835000D03*
X124455000Y-116835000D03*
X121915000Y-119375000D03*
X124455000Y-119375000D03*
X121915000Y-121915000D03*
X124455000Y-121915000D03*
X121915000Y-124455000D03*
X124455000Y-124455000D03*
X121915000Y-126995000D03*
X124455000Y-126995000D03*
%TD*%
D10*
%TO.C,RN3*%
X100330000Y-54610000D03*
D11*
X102870000Y-54610000D03*
X105410000Y-54610000D03*
X107950000Y-54610000D03*
X110490000Y-54610000D03*
X113030000Y-54610000D03*
X115570000Y-54610000D03*
X118110000Y-54610000D03*
X120650000Y-54610000D03*
%TD*%
D13*
%TO.C,D11*%
X155575000Y-48260000D03*
D14*
X153035000Y-48260000D03*
%TD*%
D12*
%TO.C,H2*%
X129540000Y-27940000D03*
%TD*%
D15*
%TO.C,SW16*%
X203200000Y-134555000D03*
X203200000Y-139255000D03*
X203200000Y-143955000D03*
%TD*%
D16*
%TO.C,R3*%
X240030000Y-102235000D03*
D11*
X232410000Y-102235000D03*
%TD*%
D10*
%TO.C,U7*%
X201295000Y-83820000D03*
D11*
X201295000Y-86360000D03*
X201295000Y-88900000D03*
X201295000Y-91440000D03*
X201295000Y-93980000D03*
X201295000Y-96520000D03*
X201295000Y-99060000D03*
X201295000Y-101600000D03*
X201295000Y-104140000D03*
X201295000Y-106680000D03*
X201295000Y-109220000D03*
X201295000Y-111760000D03*
X208915000Y-111760000D03*
X208915000Y-109220000D03*
X208915000Y-106680000D03*
X208915000Y-104140000D03*
X208915000Y-101600000D03*
X208915000Y-99060000D03*
X208915000Y-96520000D03*
X208915000Y-93980000D03*
X208915000Y-91440000D03*
X208915000Y-88900000D03*
X208915000Y-86360000D03*
X208915000Y-83820000D03*
%TD*%
D13*
%TO.C,D3*%
X84460000Y-48260000D03*
D14*
X81920000Y-48260000D03*
%TD*%
D13*
%TO.C,D27*%
X191135000Y-60325000D03*
D14*
X188595000Y-60325000D03*
%TD*%
D15*
%TO.C,SW7*%
X145415000Y-143955000D03*
X145415000Y-139255000D03*
X145415000Y-134555000D03*
%TD*%
D17*
%TO.C,J2*%
X153670000Y-114295000D03*
D18*
X153670000Y-116835000D03*
%TD*%
M02*
