M48
; DRILL file {KiCad 7.0.9} date Mon Dec  4 17:05:16 2023
; FORMAT={-:-/ absolute / inch / decimal}
; #@! TF.CreationDate,2023-12-04T17:05:16-06:00
; #@! TF.GenerationSoftware,Kicad,Pcbnew,7.0.9
; #@! TF.FileFunction,MixedPlating,1,2
FMAT,2
INCH
; #@! TA.AperFunction,Plated,PTH,ViaDrill
T1C0.0118
; #@! TA.AperFunction,Plated,PTH,ViaDrill
T2C0.0157
; #@! TA.AperFunction,Plated,PTH,ComponentDrill
T3C0.0315
; #@! TA.AperFunction,Plated,PTH,ComponentDrill
T4C0.0354
; #@! TA.AperFunction,Plated,PTH,ComponentDrill
T5C0.0394
; #@! TA.AperFunction,NonPlated,NPTH,ComponentDrill
T6C0.1260
%
G90
G05
T1
X2.45Y-2.05
X2.6Y-3.225
X2.65Y-4.55
X2.7Y-3.25
X2.75Y-2.025
X2.825Y-3.175
X2.825Y-3.3
X2.85Y-2.0
X3.0057Y-3.275
X3.05Y-3.3
X3.1Y-3.325
X3.15Y-1.975
X3.325Y-2.525
X3.35Y-3.9
X3.35Y-4.9
X3.375Y-4.1
X3.375Y-4.925
X3.4Y-4.3
X3.4Y-4.95
X3.55Y-4.4
X3.7Y-2.5
X3.7Y-3.8
X3.725Y-4.0
X3.725Y-4.6
X3.725Y-5.225
X3.75Y-4.0553
X3.825Y-4.5
X3.95Y-4.25
X3.975Y-2.4754
X3.975Y-4.35
X4.0Y-4.625
X4.05Y-4.55
X4.2Y-2.45
X4.2Y-4.4492
X4.225Y-4.15
X4.225Y-4.25
X4.225Y-4.3
X4.275Y-3.95
X4.275Y-4.15
X4.35Y-3.8
X4.35Y-4.5
X4.4Y-2.7
X4.45Y-4.0996
X4.55Y-3.35
X4.575Y-4.3
X4.7Y-4.5
X4.975Y-2.6998
X4.975Y-3.525
X5.0Y-3.15
X5.0Y-3.5
X5.125Y-3.375
X5.15Y-3.35
X5.175Y-3.325
X5.2Y-3.3
X5.225Y-3.275
X5.25Y-3.25
X5.275Y-3.225
X5.475Y-2.5004
X5.475Y-5.225
X5.525Y-2.55
X5.6Y-4.45
X5.675Y-2.65
X5.675Y-2.975
X5.725Y-2.575
X5.725Y-4.575
X5.775Y-2.4754
X5.775Y-4.65
X5.825Y-2.795
X5.875Y-2.625
X5.925Y-2.6
X5.925Y-4.6
X5.9746Y-4.7
X5.975Y-2.45
X6.025Y-2.795
X6.075Y-2.875
X6.075Y-2.9988
X6.125Y-4.675
X6.225Y-4.14
X6.25Y-4.17
X6.275Y-4.21
X6.325Y-2.925
X6.3429Y-3.525
X6.35Y-4.25
X6.375Y-3.55
X6.375Y-4.15
X6.4Y-2.1
X6.4Y-3.5
X6.4Y-4.05
X6.425Y-3.475
X6.425Y-3.95
X6.475Y-3.8
X6.475Y-4.3
X6.5Y-2.075
X6.525Y-3.65
X6.525Y-4.2
X6.575Y-3.375
X6.575Y-4.1
X6.625Y-3.225
X6.625Y-4.35
X6.675Y-3.35
X6.675Y-4.0
X6.7Y-1.975
X6.725Y-2.0
X6.875Y-2.05
X6.925Y-3.25
X6.925Y-3.6
X6.975Y-3.325
X7.025Y-3.275
X7.025Y-3.7
X7.075Y-3.3
X7.1Y-2.025
X7.225Y-2.0
X7.275Y-2.9
X7.725Y-3.6
X7.75Y-3.3
X7.7531Y-4.2
X7.825Y-2.7215
X7.875Y-4.625
X8.0Y-3.1
X8.025Y-3.075
X8.025Y-3.4
X8.075Y-2.675
X8.1015Y-2.7215
X8.103Y-3.4
X8.125Y-2.675
X8.1315Y-3.0
X8.1315Y-3.5
X8.16Y-2.75
X8.275Y-2.65
X8.375Y-4.225
X8.425Y-2.6
X8.475Y-2.625
X8.48Y-3.65
X8.4815Y-3.9
X8.51Y-3.45
X8.51Y-4.0
X8.54Y-3.182
X8.55Y-4.0
X8.5715Y-3.1535
X8.575Y-3.95
X8.6Y-2.2
X8.6Y-2.75
X8.6Y-3.125
X8.6Y-3.75
X8.61Y-4.2
X8.65Y-2.225
X8.65Y-2.65
X8.7Y-2.25
X8.7Y-2.55
X8.775Y-4.5
X8.8Y-2.6
X8.875Y-4.675
X8.9Y-2.5
X8.9Y-2.85
X8.9Y-3.1
X8.915Y-3.95
X8.915Y-4.1
X8.93Y-2.675
X9.05Y-4.675
X9.075Y-4.4
X9.075Y-4.625
X9.225Y-3.5
X9.375Y-4.35
X9.525Y-3.4
X9.525Y-4.3
T2
X2.5Y-3.475
X3.5Y-3.675
X3.875Y-2.65
X4.5Y-3.9
X5.25Y-2.6
X6.525Y-2.95
X7.6Y-3.5
X7.625Y-2.125
X7.8Y-3.5
X8.075Y-3.85
T3
X2.2Y-2.7516
X2.2Y-2.9484
X2.35Y-2.75
X2.35Y-3.05
X2.45Y-2.75
X2.45Y-3.05
X2.55Y-2.75
X2.55Y-3.05
X2.65Y-2.75
X2.65Y-3.05
X2.675Y-4.825
X2.75Y-2.75
X2.75Y-3.05
X2.775Y-4.825
X2.85Y-2.75
X2.85Y-3.05
X2.875Y-4.825
X2.95Y-2.75
X2.95Y-3.05
X2.95Y-3.7
X2.95Y-3.8
X2.95Y-3.9
X2.95Y-4.0
X2.95Y-4.1
X2.95Y-4.2
X2.95Y-4.3
X2.95Y-4.4
X2.975Y-4.825
X3.05Y-2.75
X3.05Y-3.05
X3.0516Y-3.55
X3.075Y-4.825
X3.15Y-2.75
X3.15Y-3.05
X3.2484Y-3.55
X3.25Y-2.75
X3.25Y-3.05
X3.25Y-3.7
X3.25Y-3.8
X3.25Y-3.9
X3.25Y-4.0
X3.25Y-4.1
X3.25Y-4.2
X3.25Y-4.3
X3.25Y-4.4
X3.3Y-1.6
X3.4Y-1.6
X3.46Y-2.7516
X3.46Y-2.9484
X3.5Y-1.6
X3.6Y-1.6
X3.6Y-2.75
X3.6Y-3.05
X3.7Y-1.6
X3.7Y-2.75
X3.7Y-3.05
X3.725Y-4.825
X3.8Y-1.6
X3.8Y-2.75
X3.8Y-3.05
X3.825Y-3.6996
X3.825Y-3.7996
X3.825Y-3.8996
X3.825Y-3.9996
X3.825Y-4.0996
X3.825Y-4.1996
X3.825Y-4.2996
X3.825Y-4.3996
X3.825Y-4.825
X3.9Y-1.6
X3.9Y-2.75
X3.9Y-3.05
X3.925Y-4.825
X3.95Y-2.15
X4.0Y-1.6
X4.0Y-2.75
X4.0Y-3.05
X4.025Y-4.825
X4.05Y-2.15
X4.1Y-1.6
X4.1Y-2.75
X4.1Y-3.05
X4.125Y-3.55
X4.125Y-3.6996
X4.125Y-3.7996
X4.125Y-3.8996
X4.125Y-3.9996
X4.125Y-4.0996
X4.125Y-4.1996
X4.125Y-4.2996
X4.125Y-4.3996
X4.125Y-4.825
X4.15Y-2.15
X4.2Y-2.75
X4.2Y-3.05
X4.225Y-4.825
X4.25Y-2.15
X4.3Y-2.75
X4.3Y-3.05
X4.3219Y-3.55
X4.325Y-4.825
X4.35Y-2.15
X4.45Y-2.15
X4.55Y-2.15
X4.65Y-2.15
X4.75Y-2.15
X5.22Y-2.7484
X5.22Y-2.9453
X5.3746Y-4.05
X5.3746Y-4.35
X5.375Y-2.75
X5.375Y-3.05
X5.38Y-3.7281
X5.38Y-3.925
X5.4746Y-4.05
X5.4746Y-4.35
X5.475Y-2.75
X5.475Y-3.05
X5.475Y-4.825
X5.5746Y-4.05
X5.5746Y-4.35
X5.575Y-2.75
X5.575Y-3.05
X5.575Y-4.825
X5.6746Y-4.05
X5.6746Y-4.35
X5.675Y-2.75
X5.675Y-3.05
X5.675Y-4.825
X5.75Y-1.6
X5.7746Y-4.05
X5.7746Y-4.35
X5.775Y-2.75
X5.775Y-3.05
X5.775Y-4.825
X5.85Y-1.6
X5.8746Y-4.05
X5.8746Y-4.35
X5.875Y-2.75
X5.875Y-3.05
X5.875Y-4.825
X5.95Y-1.6
X5.95Y-2.15
X5.9746Y-4.05
X5.9746Y-4.35
X5.975Y-2.75
X5.975Y-3.05
X5.975Y-4.825
X6.05Y-1.6
X6.05Y-2.15
X6.0746Y-4.05
X6.0746Y-4.35
X6.075Y-2.75
X6.075Y-3.05
X6.075Y-4.825
X6.15Y-1.6
X6.15Y-2.15
X6.225Y-2.8
X6.225Y-2.9969
X6.25Y-1.6
X6.25Y-2.15
X6.35Y-1.6
X6.35Y-2.15
X6.375Y-2.75
X6.375Y-3.05
X6.45Y-1.6
X6.45Y-2.15
X6.475Y-2.75
X6.475Y-3.05
X6.55Y-1.6
X6.55Y-2.15
X6.575Y-2.75
X6.575Y-3.05
X6.65Y-2.15
X6.675Y-2.75
X6.675Y-3.05
X6.75Y-2.15
X6.775Y-2.75
X6.775Y-3.05
X6.875Y-2.75
X6.875Y-3.05
X6.975Y-2.75
X6.975Y-3.05
X7.075Y-2.75
X7.075Y-3.05
X7.175Y-2.75
X7.175Y-3.05
X7.175Y-3.5
X7.175Y-3.6
X7.175Y-3.7
X7.175Y-3.8
X7.175Y-3.9
X7.175Y-4.0
X7.175Y-4.1
X7.175Y-4.2
X7.175Y-4.3
X7.175Y-4.4
X7.275Y-2.75
X7.275Y-3.05
X7.2816Y-3.35
X7.475Y-3.5
X7.475Y-3.6
X7.475Y-3.7
X7.475Y-3.8
X7.475Y-3.9
X7.475Y-4.0
X7.475Y-4.1
X7.475Y-4.2
X7.475Y-4.3
X7.475Y-4.4
X7.4784Y-3.35
X7.4872Y-2.875
X7.625Y-2.875
X7.82Y-1.8116
X7.82Y-2.0084
X7.825Y-2.125
X7.825Y-2.425
X7.925Y-2.125
X7.925Y-2.425
X7.925Y-3.3
X7.925Y-3.4
X7.925Y-3.5
X7.925Y-3.6
X7.925Y-3.7
X7.925Y-3.8
X7.925Y-3.9
X7.925Y-4.0
X7.925Y-4.1
X7.925Y-4.2
X7.925Y-4.3
X7.925Y-4.4
X8.025Y-2.125
X8.025Y-2.425
X8.125Y-2.125
X8.125Y-2.425
X8.225Y-2.125
X8.225Y-2.425
X8.225Y-3.3
X8.225Y-3.4
X8.225Y-3.5
X8.225Y-3.6
X8.225Y-3.7
X8.225Y-3.8
X8.225Y-3.9
X8.225Y-4.0
X8.225Y-4.1
X8.225Y-4.2
X8.225Y-4.3
X8.225Y-4.4
X8.325Y-2.125
X8.325Y-2.425
X8.37Y-3.0281
X8.37Y-3.225
X8.375Y-3.4
X8.375Y-3.7
X8.425Y-2.125
X8.425Y-2.425
X8.475Y-4.825
X8.525Y-2.125
X8.525Y-2.425
X8.575Y-4.825
X8.675Y-4.825
X8.7Y-3.45
X8.7Y-3.55
X8.7Y-3.65
X8.7Y-3.75
X8.7Y-3.85
X8.7Y-3.95
X8.7Y-4.05
X8.775Y-4.825
X8.8016Y-3.3
X8.875Y-4.825
X8.975Y-4.825
X8.9984Y-3.3
X9.0Y-3.45
X9.0Y-3.55
X9.0Y-3.65
X9.0Y-3.75
X9.0Y-3.85
X9.0Y-3.95
X9.0Y-4.05
X9.025Y-2.45
X9.025Y-2.55
X9.025Y-2.65
X9.025Y-2.75
X9.025Y-2.85
X9.025Y-2.95
X9.075Y-4.825
X9.15Y-3.3
X9.15Y-3.4
X9.15Y-3.5
X9.15Y-3.6
X9.15Y-3.7
X9.15Y-3.8
X9.15Y-3.9
X9.15Y-4.025
X9.225Y-2.31
X9.225Y-2.41
X9.225Y-2.51
X9.225Y-2.61
X9.25Y-2.7366
X9.25Y-2.9334
X9.2531Y-3.15
X9.3216Y-2.16
X9.4116Y-2.77
X9.45Y-3.15
X9.45Y-3.3
X9.45Y-3.4
X9.45Y-3.5
X9.45Y-3.6
X9.45Y-3.7
X9.45Y-3.8
X9.45Y-3.9
X9.45Y-4.025
X9.5184Y-2.16
X9.525Y-2.31
X9.525Y-2.41
X9.525Y-2.51
X9.525Y-2.61
X9.6084Y-2.77
X9.725Y-2.05
X9.725Y-2.35
X9.725Y-2.45
X9.725Y-2.75
T4
X2.525Y-1.9
X2.625Y-1.9
X2.875Y-1.9
X2.975Y-1.9
X3.2252Y-1.9
X3.3252Y-1.9
X3.575Y-1.9
X3.575Y-2.375
X3.675Y-1.9
X3.675Y-2.375
X3.925Y-1.9
X3.925Y-2.375
X4.025Y-1.9
X4.025Y-2.375
X4.275Y-1.9
X4.275Y-2.375
X4.375Y-1.9
X4.375Y-2.375
X4.625Y-1.9
X4.625Y-2.375
X4.725Y-1.9
X4.725Y-2.375
X4.975Y-1.9
X4.975Y-2.375
X5.075Y-1.9
X5.075Y-2.375
X5.325Y-1.9
X5.325Y-2.375
X5.425Y-1.9
X5.425Y-2.375
X5.675Y-1.9
X5.675Y-2.375
X5.775Y-1.9
X5.775Y-2.375
X6.025Y-1.9
X6.025Y-2.375
X6.125Y-1.9
X6.125Y-2.375
X6.375Y-1.9
X6.375Y-2.375
X6.475Y-1.9
X6.475Y-2.375
X6.725Y-1.9
X6.725Y-2.375
X6.825Y-1.9
X6.825Y-2.375
X7.075Y-1.9
X7.075Y-2.375
X7.175Y-1.9
X7.175Y-2.375
X7.425Y-1.9
X7.425Y-2.375
X7.525Y-1.9
X7.525Y-2.375
X8.6576Y-2.9883
X8.6576Y-2.9117
X8.7117Y-2.8576
X8.7117Y-3.0424
X8.7883Y-2.8576
X8.7883Y-3.0424
X8.8424Y-2.9883
X8.8424Y-2.9117
X9.325Y-1.9
X9.425Y-1.9
T5
X4.7998Y-2.5998
X4.7998Y-2.6998
X4.7998Y-2.7998
X4.7998Y-2.8998
X4.7998Y-2.9998
X4.7998Y-3.0998
X4.7998Y-3.1998
X4.7998Y-3.2998
X4.7998Y-3.3998
X4.7998Y-3.4998
X4.7998Y-3.5998
X4.7998Y-3.6998
X4.7998Y-3.7998
X4.7998Y-3.8998
X4.7998Y-3.9998
X4.7998Y-4.0998
X4.7998Y-4.1998
X4.7998Y-4.2998
X4.7998Y-4.3998
X4.7998Y-4.4998
X4.7998Y-4.5998
X4.7998Y-4.6998
X4.7998Y-4.7998
X4.7998Y-4.8998
X4.7998Y-4.9998
X4.8998Y-2.5998
X4.8998Y-2.6998
X4.8998Y-2.7998
X4.8998Y-2.8998
X4.8998Y-2.9998
X4.8998Y-3.0998
X4.8998Y-3.1998
X4.8998Y-3.2998
X4.8998Y-3.3998
X4.8998Y-3.4998
X4.8998Y-3.5998
X4.8998Y-3.6998
X4.8998Y-3.7998
X4.8998Y-3.8998
X4.8998Y-3.9998
X4.8998Y-4.0998
X4.8998Y-4.1998
X4.8998Y-4.2998
X4.8998Y-4.3998
X4.8998Y-4.4998
X4.8998Y-4.5998
X4.8998Y-4.6998
X4.8998Y-4.7998
X4.8998Y-4.8998
X4.8998Y-4.9998
X6.05Y-4.4998
X6.05Y-4.5998
X9.7Y-3.025
X9.7Y-3.125
X9.7Y-3.225
X9.7Y-3.625
X9.7Y-3.725
X9.7Y-3.825
X9.7Y-4.225
X9.7Y-4.325
X9.7Y-4.425
T6
X2.125Y-1.325
X2.125Y-4.9
X2.2Y-1.1
X3.95Y-5.1
X4.575Y-2.975
X5.1Y-1.1
X6.275Y-1.125
X6.8Y-3.475
X7.4Y-1.1
X7.55Y-5.1
X9.675Y-1.325
X9.675Y-4.9
T5
G00X2.2526Y-5.2974
M15
G01X2.1974Y-5.2974
M16
G05
G00X2.2526Y-5.4825
M15
G01X2.1974Y-5.4825
M16
G05
G00X2.2526Y-5.6675
M15
G01X2.1974Y-5.6675
M16
G05
G00X2.7776Y-5.2974
M15
G01X2.7224Y-5.2974
M16
G05
G00X2.7776Y-5.4825
M15
G01X2.7224Y-5.4825
M16
G05
G00X2.7776Y-5.6675
M15
G01X2.7224Y-5.6675
M16
G05
G00X3.1276Y-5.2974
M15
G01X3.0724Y-5.2974
M16
G05
G00X3.1276Y-5.4825
M15
G01X3.0724Y-5.4825
M16
G05
G00X3.1276Y-5.6675
M15
G01X3.0724Y-5.6675
M16
G05
G00X3.5974Y-5.2974
M15
G01X3.6526Y-5.2974
M16
G05
G00X3.5974Y-5.4825
M15
G01X3.6526Y-5.4825
M16
G05
G00X3.5974Y-5.6675
M15
G01X3.6526Y-5.6675
M16
G05
G00X3.9474Y-5.2974
M15
G01X4.0026Y-5.2974
M16
G05
G00X3.9474Y-5.4825
M15
G01X4.0026Y-5.4825
M16
G05
G00X3.9474Y-5.6675
M15
G01X4.0026Y-5.6675
M16
G05
G00X4.2974Y-5.2974
M15
G01X4.3526Y-5.2974
M16
G05
G00X4.2974Y-5.4825
M15
G01X4.3526Y-5.4825
M16
G05
G00X4.2974Y-5.6675
M15
G01X4.3526Y-5.6675
M16
G05
G00X4.6474Y-5.2974
M15
G01X4.7026Y-5.2974
M16
G05
G00X4.6474Y-5.4825
M15
G01X4.7026Y-5.4825
M16
G05
G00X4.6474Y-5.6675
M15
G01X4.7026Y-5.6675
M16
G05
G00X4.9974Y-5.2974
M15
G01X5.0526Y-5.2974
M16
G05
G00X4.9974Y-5.4825
M15
G01X5.0526Y-5.4825
M16
G05
G00X4.9974Y-5.6675
M15
G01X5.0526Y-5.6675
M16
G05
G00X5.3474Y-5.2974
M15
G01X5.4026Y-5.2974
M16
G05
G00X5.3474Y-5.4825
M15
G01X5.4026Y-5.4825
M16
G05
G00X5.3474Y-5.6675
M15
G01X5.4026Y-5.6675
M16
G05
G00X5.6974Y-5.2974
M15
G01X5.7526Y-5.2974
M16
G05
G00X5.6974Y-5.4825
M15
G01X5.7526Y-5.4825
M16
G05
G00X5.6974Y-5.6675
M15
G01X5.7526Y-5.6675
M16
G05
G00X6.0474Y-5.2974
M15
G01X6.1026Y-5.2974
M16
G05
G00X6.0474Y-5.4825
M15
G01X6.1026Y-5.4825
M16
G05
G00X6.0474Y-5.6675
M15
G01X6.1026Y-5.6675
M16
G05
G00X6.3974Y-5.2974
M15
G01X6.4526Y-5.2974
M16
G05
G00X6.3974Y-5.4825
M15
G01X6.4526Y-5.4825
M16
G05
G00X6.3974Y-5.6675
M15
G01X6.4526Y-5.6675
M16
G05
G00X6.7474Y-5.2974
M15
G01X6.8026Y-5.2974
M16
G05
G00X6.7474Y-5.4825
M15
G01X6.8026Y-5.4825
M16
G05
G00X6.7474Y-5.6675
M15
G01X6.8026Y-5.6675
M16
G05
G00X7.0974Y-5.2974
M15
G01X7.1526Y-5.2974
M16
G05
G00X7.0974Y-5.4825
M15
G01X7.1526Y-5.4825
M16
G05
G00X7.0974Y-5.6675
M15
G01X7.1526Y-5.6675
M16
G05
G00X7.4474Y-5.2974
M15
G01X7.5026Y-5.2974
M16
G05
G00X7.4474Y-5.4825
M15
G01X7.5026Y-5.4825
M16
G05
G00X7.4474Y-5.6675
M15
G01X7.5026Y-5.6675
M16
G05
G00X8.0276Y-5.2974
M15
G01X7.9724Y-5.2974
M16
G05
G00X8.0276Y-5.4825
M15
G01X7.9724Y-5.4825
M16
G05
G00X8.0276Y-5.6675
M15
G01X7.9724Y-5.6675
M16
G05
G00X8.3776Y-5.2974
M15
G01X8.3224Y-5.2974
M16
G05
G00X8.3776Y-5.4825
M15
G01X8.3224Y-5.4825
M16
G05
G00X8.3776Y-5.6675
M15
G01X8.3224Y-5.6675
M16
G05
G00X8.7276Y-5.2974
M15
G01X8.6724Y-5.2974
M16
G05
G00X8.7276Y-5.4825
M15
G01X8.6724Y-5.4825
M16
G05
G00X8.7276Y-5.6675
M15
G01X8.6724Y-5.6675
M16
G05
G00X9.0224Y-5.2974
M15
G01X9.0776Y-5.2974
M16
G05
G00X9.0224Y-5.4825
M15
G01X9.0776Y-5.4825
M16
G05
G00X9.0224Y-5.6675
M15
G01X9.0776Y-5.6675
M16
G05
G00X9.5474Y-5.2974
M15
G01X9.6026Y-5.2974
M16
G05
G00X9.5474Y-5.4825
M15
G01X9.6026Y-5.4825
M16
G05
G00X9.5474Y-5.6675
M15
G01X9.6026Y-5.6675
M16
G05
T0
M30
